<?xml version="1.0" encoding="UTF-8" standalone="no"?>
<!-- Created with Inkscape (http://www.inkscape.org/) -->

<svg
  width="1000mm"
  height="1000mm"
  viewBox="0 0 1000 1000"
  version="1.1"
  id="svg1"
  xml:space="preserve"
  inkscape:version="1.3.2 (091e20ef0f, 2023-11-25)"
  sodipodi:docname="pipe.svg"
  inkscape:export-filename="pipe.png"
  inkscape:export-xdpi="96"
  inkscape:export-ydpi="96"
  xmlns:inkscape="http://www.inkscape.org/namespaces/inkscape"
  xmlns:sodipodi="http://sodipodi.sourceforge.net/DTD/sodipodi-0.dtd"
  xmlns="http://www.w3.org/2000/svg"
  xmlns:svg="http://www.w3.org/2000/svg"
  xmlns:rdf="http://www.w3.org/1999/02/22-rdf-syntax-ns#"
  xmlns:cc="http://creativecommons.org/ns#"
>
  <sodipodi:namedview
    id="namedview1"
    pagecolor="#ffffff"
    bordercolor="#000000"
    borderopacity="0.25"
    inkscape:showpageshadow="2"
    inkscape:pageopacity="0.0"
    inkscape:pagecheckerboard="0"
    inkscape:deskcolor="#d1d1d1"
    inkscape:document-units="mm"
    inkscape:zoom="0.26456984"
    inkscape:cx="1957.8952"
    inkscape:cy="1530.7868"
    inkscape:window-width="1920"
    inkscape:window-height="996"
    inkscape:window-x="1920"
    inkscape:window-y="24"
    inkscape:window-maximized="1"
    inkscape:current-layer="layer1"
  /><defs
    id="defs1"
  /><g
    inkscape:label="Capa 1"
    inkscape:groupmode="layer"
    id="layer1"
  ><g
      id="g1"
      transform="matrix(4.7782779,0,0,4.7782779,-1965.1251,-1524.9274)"
    ><path
        style="fill: #2792bb; stroke: none"
        d="m 463.65084,433.24015 c 3.16374,0.34891 10.6844,1.12904 13.37393,-0.66332 2.75002,-1.83267 4.30267,-6.16556 5.17592,-9.20799 2.18064,-7.59727 2.18265,-16.11673 -0.31895,-23.63621 -0.90202,-2.71137 -2.15776,-6.10198 -4.49107,-7.9135 -2.66033,-2.0654 -10.46126,-1.26996 -13.72509,-0.91231 -1.04778,-4.40796 -0.34942,-9.59135 -0.34784,-14.11123 8.5e-4,-2.24915 0.22563,-4.7231 -2.12005,-5.9348 -4.37586,-2.26046 -9.29117,4.79573 -11.99153,7.30943 -8.46405,7.87889 -17.12295,15.59749 -25.40826,23.66398 -2.50296,2.43684 -8.05356,6.06271 -8.08792,9.86979 -0.0392,4.34673 5.24132,7.61797 8.0809,10.26495 8.49694,7.92058 17.16519,15.76393 25.39165,23.96644 2.64652,2.63883 7.65168,9.3912 11.97669,7.21028 2.26895,-1.14418 2.13301,-3.61475 2.13392,-5.79452 0.002,-4.52 -0.69322,-9.70361 0.35767,-14.11099 m 71.27746,-46.89459 c 4.61219,0.4201 6.88343,5.37041 8.45938,9.17517 4.0324,9.73533 3.58617,21.46305 0.64779,31.39745 -1.24784,4.21882 -4.10078,10.66021 -9.12513,10.93293 1.10231,3.83735 6.14867,2.47158 9.17136,2.47264 3.65394,10e-4 8.90962,0.95953 12.34736,-0.34658 3.63991,-1.38293 5.80853,-5.49596 7.36921,-8.81877 5.82815,-12.40852 5.89141,-33.81907 -3.85963,-44.44999 -4.38657,-4.7824 -12.03472,-3.18055 -17.9538,-3.18261 -2.69562,-10e-4 -6.14326,-0.35161 -7.05654,2.81976 m -50.80148,4.21563 c 1.18233,2.54249 2.84198,4.73468 3.85539,7.40967 2.8673,7.56855 3.03246,15.80012 1.35113,23.63657 -0.80825,3.76726 -2.19481,8.71357 -5.22128,11.28708 3.03214,1.2736 8.00012,0.35557 11.28877,0.35668 l 26.10557,0.009 c 3.09115,10e-4 9.32071,1.18366 11.93449,-0.61047 2.78824,-1.91393 4.04672,-6.15827 4.83485,-9.26147 1.93957,-7.63685 1.86332,-15.29531 -0.0456,-22.93056 -0.77031,-3.081 -2.03095,-6.9953 -4.72891,-8.94359 -3.12474,-2.25648 -10.02786,-0.93934 -13.74385,-0.94062 -11.80555,-0.004 -23.85303,0.68969 -35.63056,-0.0124 z"
        id="path1"
      /><path
        style="fill: #2792bb; stroke: none"
        d="m 566.28299,390.57665 c -3.16387,-0.34781 -10.6848,-1.12532 -13.37371,0.66798 -2.74938,1.83363 -4.30052,6.16706 -5.17271,9.20979 -2.17799,7.59803 -2.17702,16.11749 0.3272,23.63611 0.90296,2.71105 2.15988,6.10122 4.49383,7.91192 2.66105,2.06447 10.4617,1.26633 13.72539,0.90753 1.04933,4.40759 0.35277,9.59123 0.35277,14.11111 0,2.24915 -0.22399,4.72318 2.12212,5.93406 4.37665,2.25893 9.2895,-4.79897 11.98899,-7.31361 8.46129,-7.88184 17.1175,-15.60346 25.4,-23.67284 2.50211,-2.43771 8.05145,-6.0655 8.08448,-9.87261 0.0377,-4.34674 -5.24398,-7.61614 -8.08448,-10.26212 -8.49969,-7.91763 -17.17068,-15.75795 -25.4,-23.9576 -2.64744,-2.63791 -7.65496,-9.38853 -11.9792,-7.20609 -2.26855,1.14496 -2.13176,3.61548 -2.13191,5.79526 -3e-4,4.52 0.6966,9.70336 -0.35277,14.11111 m -71.26111,46.91944 c -4.61234,-0.4185 -6.88531,-5.36802 -8.46258,-9.17223 -4.0358,-9.73392 -3.59366,-21.4618 -0.65874,-31.39722 1.24637,-4.21925 4.09706,-10.66164 9.12132,-10.93611 -1.10364,-3.83697 -6.14954,-2.46944 -9.17222,-2.46944 -3.65394,0 -8.90995,-0.95642 -12.34723,0.35088 -3.63944,1.3842 -5.80662,5.49799 -7.36615,8.82134 -5.82382,12.41055 -5.87961,33.82113 3.87513,44.44864 4.38824,4.78087 12.03583,3.17636 17.95491,3.17636 2.69562,0 6.14338,0.34946 7.05556,-2.82222 m 50.8,-4.23334 c -1.1832,-2.54209 -2.84363,-4.73369 -3.85797,-7.40833 -2.86994,-7.56756 -3.03797,-15.79906 -1.35937,-23.63611 0.80695,-3.76753 2.19177,-8.71432 5.21734,-11.28889 -3.03259,-1.27255 -8.00023,-0.35277 -11.28889,-0.35277 h -26.10556 c -3.09117,0 -9.32113,-1.18042 -11.93428,0.61464 -2.78758,1.91489 -4.04459,6.15966 -4.83164,9.26313 -1.9369,7.63754 -1.85798,15.29597 0.0536,22.93056 0.77138,3.08073 2.03339,6.99459 4.73202,8.94193 3.12554,2.2554 10.02819,0.93584 13.74418,0.93584 11.80555,0 23.85279,-0.69802 35.63056,0 z"
        id="path1-6"
      /></g></g><metadata
    id="metadata1"
  ><rdf:RDF><cc:Work
        rdf:about=""
      ><cc:license
          rdf:resource="http://creativecommons.org/licenses/by-nd/4.0/"
        /></cc:Work><cc:License
        rdf:about="http://creativecommons.org/licenses/by-nd/4.0/"
      ><cc:permits
          rdf:resource="http://creativecommons.org/ns#Reproduction"
        /><cc:permits
          rdf:resource="http://creativecommons.org/ns#Distribution"
        /><cc:requires
          rdf:resource="http://creativecommons.org/ns#Notice"
        /><cc:requires
          rdf:resource="http://creativecommons.org/ns#Attribution"
        /></cc:License></rdf:RDF></metadata>
</svg>
